<?xml version="1.0" standalone="no"?>
<!DOCTYPE svg PUBLIC "-//W3C//DTD SVG 20010904//EN"
 "http://www.w3.org/TR/2001/REC-SVG-20010904/DTD/svg10.dtd">
<svg version="1.0" xmlns="http://www.w3.org/2000/svg"
 width="1280.000000pt" height="640.000000pt" viewBox="0 0 1280.000000 640.000000"
 preserveAspectRatio="xMidYMid meet">
<metadata>
Created by potrace 1.15, written by Peter Selinger 2001-2017
</metadata>
<g transform="translate(0.000000,640.000000) scale(0.100000,-0.100000)"
fill="#000000" stroke="none">
<path d="M12465 5716 c-176 -56 -399 -275 -625 -611 -204 -304 -351 -629 -381
-845 -19 -134 7 -197 88 -219 52 -15 113 -14 213 4 196 34 461 125 685 235
158 78 246 143 295 220 84 131 79 265 -20 574 -80 250 -110 382 -110 485 0 91
-31 155 -80 165 -14 3 -43 -1 -65 -8z m-51 -753 c44 -133 57 -276 32 -336 -15
-37 -92 -118 -147 -154 -30 -20 -45 -23 -71 -18 -152 32 -158 182 -15 375 45
60 162 180 176 180 5 0 16 -21 25 -47z"/>
<path d="M10602 5525 c-53 -38 -180 -278 -232 -440 -34 -108 -46 -234 -22
-242 7 -3 34 19 61 48 29 31 54 50 62 47 22 -9 58 -90 75 -170 12 -56 15 -112
11 -238 -8 -281 -45 -351 -270 -518 -50 -38 -98 -80 -106 -95 -13 -24 -12 -29
4 -47 26 -29 68 -26 256 20 372 92 500 142 588 230 73 73 104 144 109 250 9
187 -66 417 -270 824 -101 201 -158 296 -195 326 -31 24 -42 25 -71 5z"/>
<path d="M1153 5449 c-102 -17 -254 -92 -352 -172 -76 -64 -136 -140 -182
-232 -60 -121 -73 -226 -44 -340 31 -119 102 -148 221 -90 47 22 95 64 234
205 96 98 185 180 197 183 12 2 31 -2 42 -10 19 -12 21 -25 21 -104 0 -58 -7
-120 -21 -172 -53 -213 -285 -954 -546 -1742 -590 -1787 -710 -2158 -719
-2230 -4 -26 -1 -46 8 -59 13 -16 17 -17 36 -5 47 29 111 145 312 562 114 238
299 619 410 847 692 1419 950 1984 950 2085 0 71 -56 247 -168 525 -112 278
-122 334 -71 372 51 38 325 33 440 -7 56 -20 93 -55 134 -130 97 -175 175
-561 174 -865 0 -111 -18 -161 -100 -280 -113 -162 -125 -205 -66 -240 26 -16
50 -20 133 -20 213 0 384 77 539 242 164 174 221 356 185 597 -77 525 -537
921 -1210 1040 -113 20 -416 52 -475 50 -16 -1 -54 -5 -82 -10z"/>
<path d="M7073 4964 c-67 -32 -130 -94 -186 -181 -51 -78 -89 -117 -131 -133
-16 -6 -93 -15 -170 -20 -193 -13 -302 -43 -410 -115 -131 -87 -150 -147 -175
-542 -8 -118 -15 -163 -32 -202 -41 -96 -135 -155 -324 -204 -234 -61 -433
-62 -654 -6 -257 66 -306 191 -159 416 62 95 92 132 287 348 201 222 285 327
321 399 107 213 -87 308 -349 171 -125 -66 -228 -170 -347 -350 -122 -186
-214 -380 -269 -570 -34 -118 -45 -195 -46 -316 0 -91 2 -104 24 -138 30 -45
150 -129 255 -179 l77 -37 225 0 c136 0 255 6 300 13 138 24 290 78 485 175
347 171 363 174 580 114 176 -49 287 -67 419 -67 349 0 672 141 1361 595 469
309 641 411 678 401 71 -17 247 -177 293 -266 41 -79 40 -171 -5 -298 -18 -51
-31 -99 -28 -106 22 -56 299 -5 514 95 146 67 271 174 289 246 9 33 -63 176
-118 234 -153 164 -492 381 -653 418 -43 10 -62 9 -130 -9 -92 -24 -191 -72
-700 -342 -543 -287 -652 -352 -900 -537 -82 -61 -173 -123 -202 -138 -69 -37
-78 -28 -63 58 18 98 55 193 117 303 31 54 67 134 79 176 29 101 48 292 39
405 -12 162 -56 215 -176 215 -47 -1 -78 -7 -116 -26z m-220 -562 c41 -28 74
-77 99 -151 20 -57 23 -85 23 -211 -1 -157 -15 -220 -52 -220 -9 0 -48 31 -85
69 -107 109 -228 310 -228 378 0 36 36 90 83 124 48 35 116 39 160 11z"/>
<path d="M3845 4850 c-64 -24 -80 -115 -36 -203 29 -61 104 -138 162 -168 58
-30 138 -32 169 -4 55 49 46 101 -32 198 -97 121 -209 197 -263 177z"/>
<path d="M3588 4086 c-59 -21 -131 -72 -187 -131 -89 -94 -126 -207 -125 -380
1 -130 20 -219 70 -322 63 -132 193 -243 284 -243 54 0 131 43 194 110 133
139 153 296 76 608 -49 201 -117 324 -197 358 -40 17 -67 17 -115 0z"/>
<path d="M12390 3664 c-25 -2 -144 -11 -265 -20 -684 -48 -2498 -232 -3440
-349 -1302 -161 -1399 -176 -3200 -475 -1722 -286 -1683 -279 -2565 -490
-1010 -242 -1520 -402 -1629 -510 -37 -37 -42 -83 -12 -100 28 -14 206 -12
346 5 267 32 640 91 1355 215 547 95 1278 221 1910 330 451 78 2206 371 2775
464 154 25 404 66 555 91 151 24 680 108 1175 185 1490 232 2946 468 3203 520
143 29 185 71 112 114 -30 18 -53 21 -155 22 -66 1 -140 0 -165 -2z"/>
</g>
</svg>
